# xmcd CD database file
#
# Track frame offsets:
#	150
#	15541
#	27747
#	40998
#	54065
#	65881
#	79263
#	88369
#	106165
#	119575
#	131301
#	150328
#	168360
#	183837
#	201530
#	217541
#	233766
#	249838
#	268655
#	286643
#
# Disc length: 4187 seconds
#
# Revision: 0
# Processed by: cddbd v1.4PL0 Copyright (c) Steve Scherf et al.
# Submitted via: Feurio! 1.65 - http://www.feurio.com
#
DISCID=0a105914
DTITLE=George Highfill and Ronnie Milsap - Waitin' Up and Keyed Up
DYEAR=1900
DGENRE=Country
TTITLE0=George Highfill - Waitin' up
TTITLE1=George Highfill - The Brand-New Mister Me
TTITLE2=George Highfill - Billfold Size
TTITLE3=George Highfill - Mad Money
TTITLE4=George Highfill - My Sweet Love Ain't Around
TTITLE5=George Highfill - Happy You
TTITLE6=George Highfill - West Texas
TTITLE7=George Highfill - Still Tryin'
TTITLE8=George Highfill - Knockin' At My Door
TTITLE9=George Highfill - Nickles And Dimes
TTITLE10=Ronnie Milsap - Stranger in my house
TTITLE11=Ronnie Milsap - Show her
TTITLE12=Ronnie Milsap - Don't your memory ever sleep at night
TTITLE13=Ronnie Milsap - Watch out for the other guy
TTITLE14=Ronnie Milsap - I'm just a redneck at heart
TTITLE15=Ronnie Milsap - Don't you know how much I love you
TTITLE16=Ronnie Milsap - Feelings change
TTITLE17=Ronnie Milsap - Like children I have known
TTITLE18=Ronnie Milsap - Is it over
TTITLE19=Ronnie Milsap - We're here to love
EXTD=
EXTT0=
EXTT1=
EXTT2=
EXTT3=
EXTT4=
EXTT5=
EXTT6=
EXTT7=
EXTT8=
EXTT9=
EXTT10=
EXTT11=
EXTT12=
EXTT13=
EXTT14=
EXTT15=
EXTT16=
EXTT17=
EXTT18=
EXTT19=
PLAYORDER=
